
<svg version="1.1" xmlns="http://www.w3.org/2000/svg">
  <symbol id="bounce-line" viewBox="5 197 590 205">
    <path fill="none" stroke="currentColor" stroke-width="4" stroke-linecap="round" d="
      M10,342L223,342
      c 7.5,0 22.4,-22.3 32,-15
      c 10,10 16,50 22,30
      c 5,-15 -0,-50 3,-145
      c 0,-14 6,-14  6,0
      c 1,185 6,185 10,185
      c 4,-4 10,-68 19,-68
      c 10,-2 10,14 20,13
      l 255,0
"/>
  </symbol>
  <symbol viewBox="0 0 128 128">
    <path fill="currentColor" d="M64.425 19.75l-.46-.462c-13.72-13.717-35.96-13.717-49.677 0C.57 33.006.57 55.246 14.288 68.964l49.676 49.676.46-.46.46.46 49.677-49.676c13.72-13.718 13.72-35.958 0-49.676-13.715-13.717-35.955-13.717-49.673 0l-.46.46z"/>
  </symbol>
</svg>